{
  "accessors": [
    {
      "bufferView": 2,
      "componentType": 5126,
      "count": 65532,
      "max": [
        11.731986999511719,
        -0.5790060758590698,
        10.232142448425293
      ],
      "min": [
        -37.07925796508789,
        -21.36639404296875,
        -13.67844009399414
      ],
      "type": "VEC3"
    },
    {
      "bufferView": 2,
      "byteOffset": 786384,
      "componentType": 5126,
      "count": 65532,
      "max": [
        0.9999969601631165,
        0.9999209642410278,
        0.9999918937683105
      ],
      "min": [
        -0.9999975562095642,
        -0.9999999403953552,
        -0.9999991059303284
      ],
      "type": "VEC3"
    },
    {
      "bufferView": 1,
      "componentType": 5126,
      "count": 65532,
      "max": [
        0.9997389912605286,
        0.9772949814796448
      ],
      "min": [
        0.00024399999529123306,
        0.00026699999580159783
      ],
      "type": "VEC2"
    },
    {
      "bufferView": 0,
      "componentType": 5125,
      "count": 219858,
      "type": "SCALAR"
    },
    {
      "bufferView": 2,
      "byteOffset": 1572768,
      "componentType": 5126,
      "count": 65532,
      "max": [
        10.144664764404297,
        -0.5790058970451355,
        9.041520118713379
      ],
      "min": [
        -37.28718185424805,
        -21.418813705444336,
        -14.277989387512207
      ],
      "type": "VEC3"
    },
    {
      "bufferView": 2,
      "byteOffset": 2359152,
      "componentType": 5126,
      "count": 65532,
      "max": [
        0.9999964833259583,
        0.9999999403953552,
        0.9999417066574097
      ],
      "min": [
        -0.9998735785484314,
        -1.0,
        -0.9999995827674866
      ],
      "type": "VEC3"
    },
    {
      "bufferView": 1,
      "byteOffset": 524256,
      "componentType": 5126,
      "count": 65532,
      "max": [
        0.9997320175170898,
        0.9694820046424866
      ],
      "min": [
        0.00024399999529123306,
        0.00025400001322850585
      ],
      "type": "VEC2"
    },
    {
      "bufferView": 0,
      "byteOffset": 879432,
      "componentType": 5125,
      "count": 226680,
      "type": "SCALAR"
    },
    {
      "bufferView": 2,
      "byteOffset": 3145536,
      "componentType": 5126,
      "count": 65532,
      "max": [
        11.106903076171875,
        -1.867901086807251,
        20.506162643432617
      ],
      "min": [
        -15.009819030761719,
        -21.45063018798828,
        -17.990171432495117
      ],
      "type": "VEC3"
    },
    {
      "bufferView": 2,
      "byteOffset": 3931920,
      "componentType": 5126,
      "count": 65532,
      "max": [
        0.9999914765357971,
        0.9999998807907104,
        0.9999985098838806
      ],
      "min": [
        -0.9999882578849792,
        -1.0,
        -0.9997010827064514
      ],
      "type": "VEC3"
    },
    {
      "bufferView": 1,
      "byteOffset": 1048512,
      "componentType": 5126,
      "count": 65532,
      "max": [
        0.9997479915618896,
        0.9724119901657104
      ],
      "min": [
        0.00024399999529123306,
        0.00036199999158270657
      ],
      "type": "VEC2"
    },
    {
      "bufferView": 0,
      "byteOffset": 1786152,
      "componentType": 5125,
      "count": 231684,
      "type": "SCALAR"
    },
    {
      "bufferView": 2,
      "byteOffset": 4718304,
      "componentType": 5126,
      "count": 65532,
      "max": [
        11.110114097595215,
        -1.5116674900054932,
        17.534622192382813
      ],
      "min": [
        -20.605125427246094,
        -12.565410614013672,
        -17.99019432067871
      ],
      "type": "VEC3"
    },
    {
      "bufferView": 2,
      "byteOffset": 5504688,
      "componentType": 5126,
      "count": 65532,
      "max": [
        0.9999786019325256,
        0.9999772310256958,
        0.9999966621398926
      ],
      "min": [
        -0.9999878406524658,
        -1.0,
        -0.9999998807907104
      ],
      "type": "VEC3"
    },
    {
      "bufferView": 1,
      "byteOffset": 1572768,
      "componentType": 5126,
      "count": 65532,
      "max": [
        0.9997439980506897,
        0.9694820046424866
      ],
      "min": [
        0.00024399999529123306,
        0.00025499999173916876
      ],
      "type": "VEC2"
    },
    {
      "bufferView": 0,
      "byteOffset": 2712888,
      "componentType": 5125,
      "count": 212415,
      "type": "SCALAR"
    },
    {
      "bufferView": 2,
      "byteOffset": 6291072,
      "componentType": 5126,
      "count": 65532,
      "max": [
        7.862550258636475,
        -1.8244482278823853,
        20.64095687866211
      ],
      "min": [
        -15.995473861694336,
        -21.380306243896484,
        -15.503735542297363
      ],
      "type": "VEC3"
    },
    {
      "bufferView": 2,
      "byteOffset": 7077456,
      "componentType": 5126,
      "count": 65532,
      "max": [
        0.9999998807907104,
        0.9999999403953552,
        0.9999962449073792
      ],
      "min": [
        -0.9998041987419128,
        -0.9999961853027344,
        -0.9999939203262329
      ],
      "type": "VEC3"
    },
    {
      "bufferView": 1,
      "byteOffset": 2097024,
      "componentType": 5126,
      "count": 65532,
      "max": [
        0.9996870160102844,
        0.9694820046424866
      ],
      "min": [
        0.00024399999529123306,
        0.00025599999935366213
      ],
      "type": "VEC2"
    },
    {
      "bufferView": 0,
      "byteOffset": 3562548,
      "componentType": 5125,
      "count": 217530,
      "type": "SCALAR"
    },
    {
      "bufferView": 2,
      "byteOffset": 7863840,
      "componentType": 5126,
      "count": 65532,
      "max": [
        11.230417251586914,
        -1.894266128540039,
        17.729764938354492
      ],
      "min": [
        -25.334901809692383,
        -21.47233009338379,
        -17.99016571044922
      ],
      "type": "VEC3"
    },
    {
      "bufferView": 2,
      "byteOffset": 8650224,
      "componentType": 5126,
      "count": 65532,
      "max": [
        0.9999998807907104,
        1.0,
        0.9999995231628418
      ],
      "min": [
        -0.9999989867210388,
        -1.0,
        -0.9999998211860657
      ],
      "type": "VEC3"
    },
    {
      "bufferView": 1,
      "byteOffset": 2621280,
      "componentType": 5126,
      "count": 65532,
      "max": [
        0.999754011631012,
        0.9935619831085205
      ],
      "min": [
        0.00024399999529123306,
        0.00024500000290572643
      ],
      "type": "VEC2"
    },
    {
      "bufferView": 0,
      "byteOffset": 4432668,
      "componentType": 5125,
      "count": 235806,
      "type": "SCALAR"
    },
    {
      "bufferView": 2,
      "byteOffset": 9436608,
      "componentType": 5126,
      "count": 65532,
      "max": [
        11.63232421875,
        -6.325472354888916,
        5.090636730194092
      ],
      "min": [
        -24.549779891967773,
        -21.42827033996582,
        -17.990198135375977
      ],
      "type": "VEC3"
    },
    {
      "bufferView": 2,
      "byteOffset": 10222992,
      "componentType": 5126,
      "count": 65532,
      "max": [
        0.9999987483024597,
        1.0,
        0.9999998211860657
      ],
      "min": [
        -0.9999964237213135,
        -0.9999809861183167,
        -0.9999998211860657
      ],
      "type": "VEC3"
    },
    {
      "bufferView": 1,
      "byteOffset": 3145536,
      "componentType": 5126,
      "count": 65532,
      "max": [
        0.999754011631012,
        0.9948729872703552
      ],
      "min": [
        0.00024399999529123306,
        0.0006419999990612268
      ],
      "type": "VEC2"
    },
    {
      "bufferView": 0,
      "byteOffset": 5375892,
      "componentType": 5125,
      "count": 196875,
      "type": "SCALAR"
    },
    {
      "bufferView": 2,
      "byteOffset": 11009376,
      "componentType": 5126,
      "count": 65534,
      "max": [
        5.475979804992676,
        -1.9006400108337402,
        20.590787887573242
      ],
      "min": [
        -23.94423484802246,
        -21.47233009338379,
        -17.990211486816406
      ],
      "type": "VEC3"
    },
    {
      "bufferView": 2,
      "byteOffset": 11795784,
      "componentType": 5126,
      "count": 65534,
      "max": [
        0.9999987483024597,
        0.999997615814209,
        0.9999971389770508
      ],
      "min": [
        -0.9999615550041199,
        -1.0,
        -0.999977707862854
      ],
      "type": "VEC3"
    },
    {
      "bufferView": 1,
      "byteOffset": 3669792,
      "componentType": 5126,
      "count": 65534,
      "max": [
        0.9997529983520508,
        0.9753419756889343
      ],
      "min": [
        0.00024399999529123306,
        0.00024399999529123306
      ],
      "type": "VEC2"
    },
    {
      "bufferView": 0,
      "byteOffset": 6163392,
      "componentType": 5125,
      "count": 172974,
      "type": "SCALAR"
    },
    {
      "bufferView": 2,
      "byteOffset": 12582192,
      "componentType": 5126,
      "count": 65532,
      "max": [
        11.65106201171875,
        -1.8164408206939697,
        20.495092391967773
      ],
      "min": [
        -25.30862045288086,
        -18.715961456298828,
        -15.396197319030762
      ],
      "type": "VEC3"
    },
    {
      "bufferView": 2,
      "byteOffset": 13368576,
      "componentType": 5126,
      "count": 65532,
      "max": [
        0.9999874234199524,
        0.9999935626983643,
        0.9999999403953552
      ],
      "min": [
        -0.9999988675117493,
        -0.9999997615814209,
        -0.9999548196792603
      ],
      "type": "VEC3"
    },
    {
      "bufferView": 1,
      "byteOffset": 4194064,
      "componentType": 5126,
      "count": 65532,
      "max": [
        0.9996770024299622,
        0.9834790229797363
      ],
      "min": [
        0.00024399999529123306,
        0.00027200000477023423
      ],
      "type": "VEC2"
    },
    {
      "bufferView": 0,
      "byteOffset": 6855288,
      "componentType": 5125,
      "count": 205287,
      "type": "SCALAR"
    },
    {
      "bufferView": 2,
      "byteOffset": 14154960,
      "componentType": 5126,
      "count": 65534,
      "max": [
        11.221473693847656,
        -1.8645508289337158,
        20.559669494628906
      ],
      "min": [
        -15.44482707977295,
        -16.73820686340332,
        -15.43336296081543
      ],
      "type": "VEC3"
    },
    {
      "bufferView": 2,
      "byteOffset": 14941368,
      "componentType": 5126,
      "count": 65534,
      "max": [
        0.9999632239341736,
        0.9999935030937195,
        0.9999985098838806
      ],
      "min": [
        -0.9999989867210388,
        -1.0,
        -0.999984860420227
      ],
      "type": "VEC3"
    },
    {
      "bufferView": 1,
      "byteOffset": 4718320,
      "componentType": 5126,
      "count": 65534,
      "max": [
        0.9996939897537231,
        0.9890140295028687
      ],
      "min": [
        0.00024399999529123306,
        0.00024399999529123306
      ],
      "type": "VEC2"
    },
    {
      "bufferView": 0,
      "byteOffset": 7676436,
      "componentType": 5125,
      "count": 179079,
      "type": "SCALAR"
    },
    {
      "bufferView": 2,
      "byteOffset": 15727776,
      "componentType": 5126,
      "count": 65532,
      "max": [
        11.30035400390625,
        -1.530107855796814,
        0.021756943315267563
      ],
      "min": [
        -25.626693725585938,
        -21.47233009338379,
        -17.990205764770508
      ],
      "type": "VEC3"
    },
    {
      "bufferView": 2,
      "byteOffset": 16514160,
      "componentType": 5126,
      "count": 65532,
      "max": [
        0.9999927282333374,
        0.9999986886978149,
        0.999998927116394
      ],
      "min": [
        -0.9999997615814209,
        -0.999999463558197,
        -0.9998120069503784
      ],
      "type": "VEC3"
    },
    {
      "bufferView": 1,
      "byteOffset": 5242592,
      "componentType": 5126,
      "count": 65532,
      "max": [
        0.999737024307251,
        0.9772949814796448
      ],
      "min": [
        0.00024399999529123306,
        0.0002479999966453761
      ],
      "type": "VEC2"
    },
    {
      "bufferView": 0,
      "byteOffset": 8392752,
      "componentType": 5125,
      "count": 153294,
      "type": "SCALAR"
    },
    {
      "bufferView": 2,
      "byteOffset": 17300544,
      "componentType": 5126,
      "count": 65532,
      "max": [
        11.265080451965332,
        -1.8872190713882446,
        20.58294105529785
      ],
      "min": [
        -15.661718368530273,
        -21.57962989807129,
        -8.239715576171875
      ],
      "type": "VEC3"
    },
    {
      "bufferView": 2,
      "byteOffset": 18086928,
      "componentType": 5126,
      "count": 65532,
      "max": [
        0.9999969601631165,
        0.9999999403953552,
        0.9999997019767761
      ],
      "min": [
        -0.9999998211860657,
        -0.9999997019767761,
        -0.9999939203262329
      ],
      "type": "VEC3"
    },
    {
      "bufferView": 1,
      "byteOffset": 5766848,
      "componentType": 5126,
      "count": 65532,
      "max": [
        0.999737024307251,
        0.971435010433197
      ],
      "min": [
        0.00024399999529123306,
        0.00026599998818710446
      ],
      "type": "VEC2"
    },
    {
      "bufferView": 0,
      "byteOffset": 9005928,
      "componentType": 5125,
      "count": 193365,
      "type": "SCALAR"
    },
    {
      "bufferView": 2,
      "byteOffset": 18873312,
      "componentType": 5126,
      "count": 65534,
      "max": [
        11.524918556213379,
        -1.9106212854385376,
        20.565690994262695
      ],
      "min": [
        -15.661718368530273,
        -17.633399963378906,
        -15.565874099731445
      ],
      "type": "VEC3"
    },
    {
      "bufferView": 2,
      "byteOffset": 19659720,
      "componentType": 5126,
      "count": 65534,
      "max": [
        0.9999690055847168,
        0.9999715685844421,
        0.9999990463256836
      ],
      "min": [
        -0.999999463558197,
        -1.0,
        -0.9999653697013855
      ],
      "type": "VEC3"
    },
    {
      "bufferView": 1,
      "byteOffset": 6291104,
      "componentType": 5126,
      "count": 65534,
      "max": [
        0.9997490048408508,
        0.9772949814796448
      ],
      "min": [
        0.00024399999529123306,
        0.00024500000290572643
      ],
      "type": "VEC2"
    },
    {
      "bufferView": 0,
      "byteOffset": 9779388,
      "componentType": 5125,
      "count": 170559,
      "type": "SCALAR"
    },
    {
      "bufferView": 2,
      "byteOffset": 20446128,
      "componentType": 5126,
      "count": 39215,
      "max": [
        11.69811725616455,
        -1.8866795301437378,
        17.525352478027344
      ],
      "min": [
        -13.608366966247559,
        -21.427001953125,
        -17.990169525146484
      ],
      "type": "VEC3"
    },
    {
      "bufferView": 2,
      "byteOffset": 20916708,
      "componentType": 5126,
      "count": 39215,
      "max": [
        0.9998114705085754,
        1.0,
        0.9999995231628418
      ],
      "min": [
        -0.999999463558197,
        -0.9999998807907104,
        -0.999988317489624
      ],
      "type": "VEC3"
    },
    {
      "bufferView": 1,
      "byteOffset": 6815376,
      "componentType": 5126,
      "count": 39215,
      "max": [
        0.999750018119812,
        0.9694820046424866
      ],
      "min": [
        0.00024399999529123306,
        0.00026000000070780516
      ],
      "type": "VEC2"
    },
    {
      "bufferView": 0,
      "byteOffset": 10461624,
      "componentType": 5125,
      "count": 102393,
      "type": "SCALAR"
    }
  ],
  "asset": {
    "extras": {
      "author": "sander-zh (https://sketchfab.com/sander-zh)",
      "license": "CC-BY-4.0 (http://creativecommons.org/licenses/by/4.0/)",
      "source": "https://sketchfab.com/3d-models/room-office-df0f5391fa1840d8907e002fe4cf6b57",
      "title": "Room Office"
    },
    "generator": "Sketchfab-15.14.0",
    "version": "2.0"
  },
  "bufferViews": [
    {
      "buffer": 0,
      "byteLength": 10871196,
      "name": "floatBufferViews",
      "target": 34963
    },
    {
      "buffer": 0,
      "byteLength": 7129096,
      "byteOffset": 10871196,
      "byteStride": 8,
      "name": "floatBufferViews",
      "target": 34962
    },
    {
      "buffer": 0,
      "byteLength": 21387288,
      "byteOffset": 18000292,
      "byteStride": 12,
      "name": "floatBufferViews",
      "target": 34962
    }
  ],
  "buffers": [
    {
      "byteLength": 39387580,
      "uri": "scene.bin"
    }
  ],
  "extensionsUsed": [
    "KHR_materials_unlit"
  ],
  "images": [
    {
      "uri": "textures/Chambre_Model_11_baseColor.jpeg"
    }
  ],
  "materials": [
    {
      "doubleSided": true,
      "extensions": {
        "KHR_materials_unlit": {}
      },
      "name": "Chambre_Model_11",
      "pbrMetallicRoughness": {
        "baseColorTexture": {
          "index": 0
        },
        "metallicFactor": 0.0
      }
    }
  ],
  "meshes": [
    {
      "name": "Object_0",
      "primitives": [
        {
          "attributes": {
            "NORMAL": 1,
            "POSITION": 0,
            "TEXCOORD_0": 2
          },
          "indices": 3,
          "material": 0,
          "mode": 4
        }
      ]
    },
    {
      "name": "Object_1",
      "primitives": [
        {
          "attributes": {
            "NORMAL": 5,
            "POSITION": 4,
            "TEXCOORD_0": 6
          },
          "indices": 7,
          "material": 0,
          "mode": 4
        }
      ]
    },
    {
      "name": "Object_2",
      "primitives": [
        {
          "attributes": {
            "NORMAL": 9,
            "POSITION": 8,
            "TEXCOORD_0": 10
          },
          "indices": 11,
          "material": 0,
          "mode": 4
        }
      ]
    },
    {
      "name": "Object_3",
      "primitives": [
        {
          "attributes": {
            "NORMAL": 13,
            "POSITION": 12,
            "TEXCOORD_0": 14
          },
          "indices": 15,
          "material": 0,
          "mode": 4
        }
      ]
    },
    {
      "name": "Object_4",
      "primitives": [
        {
          "attributes": {
            "NORMAL": 17,
            "POSITION": 16,
            "TEXCOORD_0": 18
          },
          "indices": 19,
          "material": 0,
          "mode": 4
        }
      ]
    },
    {
      "name": "Object_5",
      "primitives": [
        {
          "attributes": {
            "NORMAL": 21,
            "POSITION": 20,
            "TEXCOORD_0": 22
          },
          "indices": 23,
          "material": 0,
          "mode": 4
        }
      ]
    },
    {
      "name": "Object_6",
      "primitives": [
        {
          "attributes": {
            "NORMAL": 25,
            "POSITION": 24,
            "TEXCOORD_0": 26
          },
          "indices": 27,
          "material": 0,
          "mode": 4
        }
      ]
    },
    {
      "name": "Object_7",
      "primitives": [
        {
          "attributes": {
            "NORMAL": 29,
            "POSITION": 28,
            "TEXCOORD_0": 30
          },
          "indices": 31,
          "material": 0,
          "mode": 4
        }
      ]
    },
    {
      "name": "Object_8",
      "primitives": [
        {
          "attributes": {
            "NORMAL": 33,
            "POSITION": 32,
            "TEXCOORD_0": 34
          },
          "indices": 35,
          "material": 0,
          "mode": 4
        }
      ]
    },
    {
      "name": "Object_9",
      "primitives": [
        {
          "attributes": {
            "NORMAL": 37,
            "POSITION": 36,
            "TEXCOORD_0": 38
          },
          "indices": 39,
          "material": 0,
          "mode": 4
        }
      ]
    },
    {
      "name": "Object_10",
      "primitives": [
        {
          "attributes": {
            "NORMAL": 41,
            "POSITION": 40,
            "TEXCOORD_0": 42
          },
          "indices": 43,
          "material": 0,
          "mode": 4
        }
      ]
    },
    {
      "name": "Object_11",
      "primitives": [
        {
          "attributes": {
            "NORMAL": 45,
            "POSITION": 44,
            "TEXCOORD_0": 46
          },
          "indices": 47,
          "material": 0,
          "mode": 4
        }
      ]
    },
    {
      "name": "Object_12",
      "primitives": [
        {
          "attributes": {
            "NORMAL": 49,
            "POSITION": 48,
            "TEXCOORD_0": 50
          },
          "indices": 51,
          "material": 0,
          "mode": 4
        }
      ]
    },
    {
      "name": "Object_13",
      "primitives": [
        {
          "attributes": {
            "NORMAL": 53,
            "POSITION": 52,
            "TEXCOORD_0": 54
          },
          "indices": 55,
          "material": 0,
          "mode": 4
        }
      ]
    }
  ],
  "nodes": [
    {
      "children": [
        1
      ],
      "matrix": [
        -0.12498710304498672,
        5.5505423832696504e-17,
        2.1529609076063192e-17,
        0.0,
        -5.550542383269651e-17,
        -0.12498710304498672,
        0.0,
        0.0,
        2.152960907606318e-17,
        0.0,
        0.12498710304498672,
        0.0,
        0.0,
        0.0,
        0.0,
        1.0
      ],
      "name": "Sketchfab_model"
    },
    {
      "children": [
        2,
        3,
        4,
        5,
        6,
        7,
        8,
        9,
        10,
        11,
        12,
        13,
        14,
        15
      ],
      "name": "Chambre_Model_11.obj.cleaner.materialmerger.gles"
    },
    {
      "mesh": 0,
      "name": "Object_2"
    },
    {
      "mesh": 1,
      "name": "Object_3"
    },
    {
      "mesh": 2,
      "name": "Object_4"
    },
    {
      "mesh": 3,
      "name": "Object_5"
    },
    {
      "mesh": 4,
      "name": "Object_6"
    },
    {
      "mesh": 5,
      "name": "Object_7"
    },
    {
      "mesh": 6,
      "name": "Object_8"
    },
    {
      "mesh": 7,
      "name": "Object_9"
    },
    {
      "mesh": 8,
      "name": "Object_10"
    },
    {
      "mesh": 9,
      "name": "Object_11"
    },
    {
      "mesh": 10,
      "name": "Object_12"
    },
    {
      "mesh": 11,
      "name": "Object_13"
    },
    {
      "mesh": 12,
      "name": "Object_14"
    },
    {
      "mesh": 13,
      "name": "Object_15"
    }
  ],
  "samplers": [
    {
      "magFilter": 9729,
      "minFilter": 9987,
      "wrapS": 10497,
      "wrapT": 10497
    }
  ],
  "scene": 0,
  "scenes": [
    {
      "name": "Sketchfab_Scene",
      "nodes": [
        0
      ]
    }
  ],
  "textures": [
    {
      "sampler": 0,
      "source": 0
    }
  ]
}
