{
    "asset": {
        "generator": "https://3dviewer.net",
        "version": "2.0"
    },
    "scene": 0,
    "scenes": [
        {
            "nodes": [
                0
            ]
        }
    ],
    "nodes": [
        {
            "mesh": 0
        }
    ],
    "materials": [
        {
            "name": "main",
            "pbrMetallicRoughness": {
                "baseColorFactor": [
                    1,
                    1,
                    1,
                    1
                ],
                "baseColorTexture": {
                    "index": 0
                }
            },
            "emissiveFactor": [
                0,
                0,
                0
            ],
            "doubleSided": true,
            "alphaMode": "OPAQUE"
        }
    ],
    "meshes": [
        {
            "name": "mesh",
            "primitives": [
                {
                    "attributes": {
                        "POSITION": 1,
                        "NORMAL": 2,
                        "TEXCOORD_0": 3
                    },
                    "mode": 4,
                    "material": 0,
                    "indices": 0
                }
            ]
        }
    ],
    "buffers": [
        {
            "uri": "model.bin",
            "byteLength": 28434132
        }
    ],
    "bufferViews": [
        {
            "buffer": 0,
            "byteOffset": 0,
            "byteLength": 3159348,
            "target": 34963
        },
        {
            "buffer": 0,
            "byteOffset": 3159348,
            "byteLength": 9478044,
            "target": 34962
        },
        {
            "buffer": 0,
            "byteOffset": 12637392,
            "byteLength": 9478044,
            "target": 34962
        },
        {
            "buffer": 0,
            "byteOffset": 22115436,
            "byteLength": 6318696,
            "target": 34962
        }
    ],
    "accessors": [
        {
            "bufferView": 0,
            "byteOffset": 0,
            "componentType": 5125,
            "count": 789837,
            "type": "SCALAR"
        },
        {
            "bufferView": 1,
            "byteOffset": 0,
            "componentType": 5126,
            "count": 789837,
            "min": [
                -7.549244403839111,
                -0.17642223834991455,
                -7.629796028137207
            ],
            "max": [
                5.629741668701172,
                3.015605926513672,
                6.078460693359375
            ],
            "type": "VEC3"
        },
        {
            "bufferView": 2,
            "byteOffset": 0,
            "componentType": 5126,
            "count": 789837,
            "type": "VEC3"
        },
        {
            "bufferView": 3,
            "byteOffset": 0,
            "componentType": 5126,
            "count": 789837,
            "type": "VEC2"
        }
    ],
    "images": [
        {
            "uri": "Embedded_8.jpeg"
        }
    ],
    "textures": [
        {
            "source": 0
        }
    ]
}