{
    "asset": {
        "generator": "https://3dviewer.net",
        "version": "2.0"
    },
    "scene": 0,
    "scenes": [
        {
            "nodes": [
                0
            ]
        }
    ],
    "nodes": [
        {
            "mesh": 0
        }
    ],
    "materials": [
        {
            "name": "main",
            "pbrMetallicRoughness": {
                "baseColorFactor": [
                    1,
                    1,
                    1,
                    1
                ],
                "baseColorTexture": {
                    "index": 0
                }
            },
            "emissiveFactor": [
                0,
                0,
                0
            ],
            "doubleSided": true,
            "alphaMode": "OPAQUE"
        }
    ],
    "meshes": [
        {
            "name": "mesh",
            "primitives": [
                {
                    "attributes": {
                        "POSITION": 1,
                        "NORMAL": 2,
                        "TEXCOORD_0": 3
                    },
                    "mode": 4,
                    "material": 0,
                    "indices": 0
                }
            ]
        }
    ],
    "buffers": [
        {
            "uri": "model.bin",
            "byteLength": 25535844
        }
    ],
    "bufferViews": [
        {
            "buffer": 0,
            "byteOffset": 0,
            "byteLength": 2837316,
            "target": 34963
        },
        {
            "buffer": 0,
            "byteOffset": 2837316,
            "byteLength": 8511948,
            "target": 34962
        },
        {
            "buffer": 0,
            "byteOffset": 11349264,
            "byteLength": 8511948,
            "target": 34962
        },
        {
            "buffer": 0,
            "byteOffset": 19861212,
            "byteLength": 5674632,
            "target": 34962
        }
    ],
    "accessors": [
        {
            "bufferView": 0,
            "byteOffset": 0,
            "componentType": 5125,
            "count": 709329,
            "type": "SCALAR"
        },
        {
            "bufferView": 1,
            "byteOffset": 0,
            "componentType": 5126,
            "count": 709329,
            "min": [
                -5.26708984375,
                -0.06633377075195312,
                -4.920107364654541
            ],
            "max": [
                5.1957902908325195,
                3.1761350631713867,
                4.746605396270752
            ],
            "type": "VEC3"
        },
        {
            "bufferView": 2,
            "byteOffset": 0,
            "componentType": 5126,
            "count": 709329,
            "type": "VEC3"
        },
        {
            "bufferView": 3,
            "byteOffset": 0,
            "componentType": 5126,
            "count": 709329,
            "type": "VEC2"
        }
    ],
    "images": [
        {
            "uri": "Embedded_10.jpeg"
        }
    ],
    "textures": [
        {
            "source": 0
        }
    ]
}